<svg width="140" height="58" viewBox="0 0 140 58" fill="none" xmlns="http://www.w3.org/2000/svg">
<path d="M6.6919 33.8495C5.22171 33.8495 3.9543 33.6069 2.88968 33.1216C2.30305 32.8402 1.7429 32.48 1.20924 32.041C0.47221 31.4348 0.517714 30.3342 1.18732 29.6542C1.93866 28.8912 3.16906 28.9717 4.06183 29.563C4.20086 29.6551 4.34246 29.7408 4.48661 29.8201C5.19636 30.184 6.01595 30.366 6.94538 30.366C7.79031 30.366 8.44091 30.21 8.89718 29.8981C9.37034 29.5861 9.60693 29.1529 9.60693 28.5983C9.60693 28.0957 9.45484 27.6884 9.15066 27.3765C8.84648 27.0645 8.44091 26.7959 7.93395 26.5706C7.44389 26.3453 6.89468 26.1286 6.28633 25.9207C5.69487 25.7127 5.10342 25.4787 4.51196 25.2188C3.9205 24.9415 3.3713 24.6035 2.86433 24.2049C2.37427 23.789 1.97715 23.2777 1.67297 22.6711C1.3688 22.0472 1.21671 21.2673 1.21671 20.3315C1.21671 19.205 1.47864 18.2345 2.0025 17.4199C2.54326 16.6054 3.2868 15.9901 4.23313 15.5742C5.17946 15.1409 6.26943 14.9243 7.50303 14.9243C8.75354 14.9243 9.8942 15.1496 10.925 15.6002C11.391 15.8006 11.8203 16.0336 12.2127 16.2991C13.0249 16.8487 12.9799 17.9847 12.2919 18.6835C11.545 19.4419 10.3432 19.3698 9.40632 18.8645C9.3634 18.8414 9.32042 18.8191 9.2774 18.7977C8.73664 18.5204 8.11984 18.3818 7.42699 18.3818C6.73414 18.3818 6.18493 18.5204 5.77936 18.7977C5.3738 19.0577 5.17101 19.4389 5.17101 19.9415C5.17101 20.4095 5.3231 20.7907 5.62728 21.0854C5.93145 21.3627 6.32857 21.6053 6.81864 21.8133C7.3256 22.0212 7.87481 22.2292 8.46626 22.4372C9.07462 22.6451 9.67452 22.8878 10.266 23.1651C10.8574 23.4424 11.3982 23.7976 11.8883 24.2309C12.3952 24.6469 12.8008 25.1841 13.105 25.8427C13.4091 26.4839 13.5612 27.2811 13.5612 28.2343C13.5612 29.9847 12.9529 31.3625 11.7362 32.3677C10.5195 33.3556 8.83803 33.8495 6.6919 33.8495Z" fill="#512E67"/>
<path d="M25.6051 33.5636C24.5062 33.5636 23.6153 32.6727 23.6153 31.5737V17.46C23.6153 16.3611 24.5062 15.4702 25.6051 15.4702C26.7041 15.4702 27.595 16.3611 27.595 17.46V31.5737C27.595 32.6727 26.7041 33.5636 25.6051 33.5636ZM19.7941 18.7717C18.8106 18.7717 18.0134 17.9744 18.0134 16.991C18.0134 16.0075 18.8106 15.2102 19.7941 15.2102H31.4161C32.3996 15.2102 33.1969 16.0075 33.1969 16.991C33.1969 17.9744 32.3996 18.7717 31.4161 18.7717H19.7941Z" fill="#512E67"/>
<path d="M46.3213 33.8495C44.8511 33.8495 43.5499 33.5289 42.4176 32.8877C41.3023 32.2464 40.4236 31.3625 39.7814 30.236C39.1562 29.0922 38.8436 27.7924 38.8436 26.3366V17.2127C38.8436 16.1068 39.7401 15.2102 40.8461 15.2102C41.952 15.2102 42.8486 16.1068 42.8486 17.2127V26.5706C42.8486 27.2985 43.0007 27.931 43.3048 28.4683C43.609 29.0056 44.023 29.4215 44.5469 29.7161C45.0877 29.9934 45.6791 30.1321 46.3213 30.1321C46.9972 30.1321 47.5887 29.9934 48.0956 29.7161C48.6026 29.4215 48.9997 29.0142 49.287 28.4943C49.5912 27.957 49.7432 27.3245 49.7432 26.5966V17.2127C49.7432 16.1068 50.6398 15.2102 51.7457 15.2102C52.8517 15.2102 53.7482 16.1068 53.7482 17.2127V26.3626C53.7482 27.8184 53.4356 29.1095 52.8104 30.236C52.1851 31.3625 51.3148 32.2464 50.1995 32.8877C49.0842 33.5289 47.7914 33.8495 46.3213 33.8495Z" fill="#512E67"/>
<path d="M62.7937 33.5636C61.8031 33.5636 61 32.7605 61 31.7698C61 30.7792 61.8031 29.9761 62.7937 29.9761H67.8455C68.9271 29.9761 69.8734 29.7594 70.6845 29.3262C71.4957 28.8756 72.1209 28.2257 72.5603 27.3765C72.9997 26.5272 73.2193 25.5221 73.2193 24.3609C73.2193 23.1997 72.9912 22.2032 72.5349 21.3713C72.0956 20.5394 71.4703 19.8982 70.6592 19.4476C69.8649 18.997 68.9271 18.7717 67.8455 18.7717L62.748 18.733C61.7805 18.7256 61 17.9392 61 16.9716C61 15.9988 61.7886 15.2102 62.7614 15.2102H67.8962C69.2481 15.2102 70.4902 15.4355 71.6224 15.8861C72.7715 16.3194 73.7685 16.952 74.6135 17.7838C75.4753 18.5984 76.1344 19.5689 76.5906 20.6954C77.0638 21.8046 77.3004 23.0351 77.3004 24.3869C77.3004 25.7214 77.0638 26.9519 76.5906 28.0784C76.1344 29.2049 75.4838 30.1754 74.6388 30.9899C73.7939 31.8045 72.7969 32.4371 71.6478 32.8877C70.5155 33.3383 69.2819 33.5636 67.9469 33.5636H62.7937ZM62.7126 33.5636C61.6136 33.5636 60.7227 32.6727 60.7227 31.5737V17.2C60.7227 16.1011 61.6136 15.2102 62.7126 15.2102C63.8115 15.2102 64.7024 16.1011 64.7024 17.2V31.5737C64.7024 32.6727 63.8115 33.5636 62.7126 33.5636Z" fill="#512E67"/>
<path d="M85.6249 33.5636C84.5259 33.5636 83.635 32.6727 83.635 31.5737V17.2C83.635 16.1011 84.5259 15.2102 85.6249 15.2102C86.7238 15.2102 87.6147 16.1011 87.6147 17.2V31.5737C87.6147 32.6727 86.7238 33.5636 85.6249 33.5636ZM85.4716 33.5636C84.4953 33.5636 83.7039 32.7721 83.7039 31.7958C83.7039 30.8195 84.4953 30.0281 85.4716 30.0281H94.7188C95.6951 30.0281 96.4865 30.8195 96.4865 31.7958C96.4865 32.7721 95.6951 33.5636 94.7188 33.5636H85.4716ZM86.7595 25.9825C85.7906 25.9921 85 25.2094 85 24.2404C85 23.2789 85.7789 22.4992 86.7404 22.4982L93.8872 22.4909C94.8325 22.4899 95.5993 23.256 95.5993 24.2012C95.5993 25.1392 94.8439 25.9022 93.906 25.9115L86.7595 25.9825ZM85.3941 18.7197C84.3992 18.7197 83.6034 17.8935 83.6406 16.8993C83.6759 15.9564 84.4506 15.2102 85.3941 15.2102H94.605C95.5741 15.2102 96.3598 15.9959 96.3598 16.965C96.3598 17.9341 95.5741 18.7197 94.605 18.7197H85.3941Z" fill="#512E67"/>
<path d="M105.022 33.5636C103.923 33.5636 103.032 32.6727 103.032 31.5737V17.9985C103.032 16.4586 104.281 15.2102 105.821 15.2102L106.865 18.4237C106.962 18.7232 107.012 19.0361 107.012 19.351V31.5737C107.012 32.6727 106.121 33.5636 105.022 33.5636ZM115.377 33.5636C113 33.5636 105.5 19.5 104.832 19.7076C104.164 19.9151 105.821 15.2102 105.821 15.2102C109 15.4702 115.5 29.5 116.365 29.0662C117.231 28.6324 115.377 33.5636 115.377 33.5636ZM115.377 33.5636C115.002 32.2746 114.776 31.4956 114.431 30.3082C114.352 30.0363 114.312 29.7544 114.312 29.4712V17.2C114.312 16.1011 115.203 15.2102 116.302 15.2102C117.401 15.2102 118.292 16.1011 118.292 17.2V30.6485C118.292 32.2585 116.987 33.5636 115.377 33.5636Z" fill="#512E67"/>
<path d="M131.924 33.5636C130.825 33.5636 129.934 32.6727 129.934 31.5737V17.46C129.934 16.3611 130.825 15.4702 131.924 15.4702C133.022 15.4702 133.913 16.3611 133.913 17.46V31.5737C133.913 32.6727 133.022 33.5636 131.924 33.5636ZM126.113 18.7717C125.129 18.7717 124.332 17.9744 124.332 16.991C124.332 16.0075 125.129 15.2102 126.113 15.2102H137.735C138.718 15.2102 139.515 16.0075 139.515 16.991C139.515 17.9744 138.718 18.7717 137.735 18.7717H126.113Z" fill="#512E67"/>
<path d="M15.4005 50.2791C14.5247 50.2791 13.8147 49.5692 13.8147 48.6934C13.8147 47.8176 14.5247 47.1076 15.4005 47.1076H20.2128C20.7028 47.1076 21.1507 47.0036 21.5562 46.7956C21.9618 46.5877 22.2829 46.2844 22.5195 45.8858C22.756 45.4872 22.8743 45.0019 22.8743 44.43C22.8743 43.8754 22.756 43.3988 22.5195 43.0002C22.2829 42.6016 21.9618 42.2983 21.5562 42.0903C21.1507 41.8823 20.7028 41.7784 20.2128 41.7784H15.2509C14.4357 41.7784 13.7534 41.1603 13.6729 40.3492C13.5803 39.4161 14.3132 38.6068 15.2509 38.6068H20.7958C21.928 38.6068 22.9504 38.8408 23.8629 39.3087C24.7754 39.7767 25.4936 40.4526 26.0175 41.3364C26.5583 42.203 26.8286 43.2341 26.8286 44.43C26.8286 45.6258 26.5583 46.6656 26.0175 47.5495C25.4936 48.4161 24.7754 49.092 23.8629 49.5772C22.9504 50.0452 21.928 50.2791 20.7958 50.2791H15.4005ZM15.3079 56.9602C14.209 56.9602 13.3181 56.0693 13.3181 54.9703V40.5966C13.3181 39.4977 14.209 38.6068 15.3079 38.6068C16.4069 38.6068 17.2978 39.4977 17.2978 40.5966V54.9703C17.2978 56.0693 16.4069 56.9602 15.3079 56.9602Z" fill="#512E67"/>
<path d="M41.5794 57.2721C40.2275 57.2721 38.977 57.0295 37.8279 56.5442C36.6957 56.059 35.6987 55.3831 34.8368 54.5165C33.975 53.65 33.3075 52.6448 32.8343 51.5009C32.3612 50.3398 32.1246 49.092 32.1246 47.7575C32.1246 46.4057 32.3612 45.1579 32.8343 44.014C33.3075 42.8702 33.9666 41.8737 34.8115 41.0245C35.6564 40.1579 36.645 39.4907 37.7772 39.0228C38.9263 38.5375 40.1768 38.2949 41.5287 38.2949C42.8637 38.2949 44.0973 38.5375 45.2296 39.0228C46.3787 39.4907 47.3757 40.1579 48.2206 41.0245C49.0825 41.8737 49.75 42.8789 50.2231 44.04C50.6963 45.1839 50.9329 46.4317 50.9329 47.7835C50.9329 49.118 50.6963 50.3658 50.2231 51.5269C49.75 52.6708 49.0909 53.676 48.246 54.5425C47.401 55.3917 46.404 56.059 45.2549 56.5442C44.1227 57.0295 42.8975 57.2721 41.5794 57.2721ZM41.5287 53.5546C42.5934 53.5546 43.5228 53.312 44.317 52.8268C45.1282 52.3415 45.7534 51.6656 46.1928 50.7991C46.6322 49.9152 46.8518 48.9013 46.8518 47.7575C46.8518 46.891 46.7251 46.1111 46.4716 45.4178C46.2181 44.7073 45.8548 44.1007 45.3816 43.5981C44.9085 43.0782 44.3424 42.6882 43.6833 42.4283C43.0412 42.151 42.323 42.0123 41.5287 42.0123C40.4641 42.0123 39.5262 42.255 38.7151 42.7402C37.9209 43.2082 37.3041 43.8754 36.8647 44.7419C36.4253 45.5911 36.2056 46.5963 36.2056 47.7575C36.2056 48.624 36.3324 49.4126 36.5859 50.1231C36.8393 50.8337 37.1942 51.449 37.6505 51.9689C38.1236 52.4715 38.6898 52.8614 39.3488 53.1387C40.0079 53.416 40.7345 53.5546 41.5287 53.5546Z" fill="#512E67"/>
<path d="M61.8109 49.3953C60.9782 49.3953 60.3032 48.7202 60.3032 47.8875C60.3032 47.0547 60.9782 46.3797 61.8109 46.3797H64.08C64.8743 46.3797 65.4826 46.1717 65.9051 45.7558C66.3445 45.3398 66.5641 44.7766 66.5641 44.066C66.5641 43.4075 66.3529 42.8615 65.9304 42.4283C65.508 41.995 64.8996 41.7784 64.1054 41.7784H59.3364C58.4956 41.7784 57.8009 41.1221 57.7532 40.2826C57.7015 39.3729 58.4253 38.6068 59.3364 38.6068H64.5616C65.7446 38.6068 66.7838 38.8408 67.6795 39.3087C68.5751 39.7593 69.2764 40.3919 69.7833 41.2064C70.2903 42.021 70.5438 42.9569 70.5438 44.014C70.5438 45.0885 70.2903 46.0331 69.7833 46.8476C69.2764 47.6448 68.5666 48.2688 67.6541 48.7194C66.7416 49.17 65.6685 49.3953 64.4349 49.3953H61.8109ZM59.2512 56.9602C58.1523 56.9602 57.2614 56.0693 57.2614 54.9703V40.6948C57.2614 39.5416 58.1962 38.6068 59.3493 38.6068C60.3941 38.6068 61.241 39.4538 61.241 40.4985V54.9703C61.241 56.0693 60.3502 56.9602 59.2512 56.9602ZM67.7755 56.9602C67.2788 56.9602 66.8055 56.7491 66.4736 56.3795L61.3035 50.622C60.2678 49.4686 61.1422 47.6386 62.6903 47.7198C63.1509 47.7439 63.5831 47.9499 63.8921 48.2924L69.0748 54.0386C70.0899 55.1641 69.2912 56.9602 67.7755 56.9602Z" fill="#512E67"/>
<path d="M83.0337 56.9602C81.9347 56.9602 81.0438 56.0693 81.0438 54.9703V40.8566C81.0438 39.7577 81.9347 38.8668 83.0337 38.8668C84.1326 38.8668 85.0235 39.7577 85.0235 40.8566V54.9703C85.0235 56.0693 84.1326 56.9602 83.0337 56.9602ZM77.2227 42.1683C76.2392 42.1683 75.4419 41.371 75.4419 40.3876C75.4419 39.4041 76.2392 38.6068 77.2226 38.6068H88.8447C89.8281 38.6068 90.6254 39.4041 90.6254 40.3876C90.6254 41.371 89.8281 42.1683 88.8447 42.1683H77.2227Z" fill="#512E67"/>
<path d="M95.8899 56.9602C94.548 56.9602 93.6244 55.6128 94.1084 54.3612L99.553 40.2822C99.9434 39.2725 100.915 38.6068 101.997 38.6068C103.083 38.6068 104.057 39.2767 104.445 40.291L109.811 54.3171C110.298 55.5921 109.357 56.9602 107.992 56.9602C107.166 56.9602 106.43 56.4394 106.156 55.6607L101.48 42.406C101.363 42.0742 101.609 41.7264 101.961 41.7264C102.314 41.7264 102.56 42.076 102.441 42.4082L97.6883 55.6935C97.4165 56.4532 96.6967 56.9602 95.8899 56.9602ZM98.7975 53.6326C97.8786 53.6326 97.1337 52.8877 97.1337 51.9689C97.1337 51.05 97.8786 50.3051 98.7975 50.3051H105.229C106.148 50.3051 106.893 51.05 106.893 51.9689C106.893 52.8877 106.148 53.6326 105.229 53.6326H98.7975Z" fill="#512E67"/>
<path d="M118.507 56.9602C117.408 56.9602 116.517 56.0693 116.517 54.9703V40.5967C116.517 39.4977 117.408 38.6068 118.507 38.6068C119.606 38.6068 120.497 39.4977 120.497 40.5967V54.9703C120.497 56.0693 119.606 56.9602 118.507 56.9602ZM118.325 56.9939C117.32 56.9973 116.504 56.1803 116.509 55.1746C116.514 54.178 117.323 53.3727 118.319 53.3727H126.634C127.627 53.3727 128.431 54.1771 128.431 55.1694C128.431 56.1594 127.63 56.9628 126.64 56.9661L118.325 56.9939Z" fill="#512E67"/>
<path d="M46.6805 0.251838C46.404 0.0955632 46.0658 0.0955632 45.7893 0.251838L32.9569 7.30331C32.2515 7.68386 32.2469 8.69416 32.9487 9.08119L32.9785 9.09766C33.1878 9.11443 33.7526 8.93263 34.2002 8.91017C34.2621 8.90707 34.3216 8.90701 34.3777 8.91092C34.3841 8.91137 34.3904 8.91186 34.3967 8.91241C34.6381 8.9335 34.8105 9.03247 34.8105 9.28767C34.8105 9.34017 34.8072 9.38751 34.8011 9.43005C34.6762 10.2899 33.3759 9.1921 34.3772 9.1921C34.391 9.1921 34.4046 9.19224 34.4177 9.19251C34.861 9.20157 34.8961 9.35989 34.8011 9.43005C34.6892 9.51264 34.397 9.47309 34.3781 8.92423C34.378 8.91983 34.3778 8.91539 34.3777 8.91092C34.3774 8.89667 34.3772 8.88208 34.3772 8.86715C34.3772 8.30619 34.5537 8.79071 34.3967 8.91241C34.391 8.91686 34.3848 8.92082 34.3781 8.92423C34.3379 8.94486 34.2804 8.94524 34.2002 8.91017C34.1463 8.88657 34.0873 8.87364 34.0295 8.8853L32.9785 9.09766L35.149 10.2635C36.1222 10.7862 36.7294 11.8016 36.7294 12.9063V16.2436C36.7294 16.6882 36.9225 17.0896 37.1452 17.3454C37.2421 17.4565 37.4394 17.5882 37.6525 17.7016C38.1018 17.9408 38.6741 17.9558 38.8997 17.4995C39.2378 16.8157 39.5875 15.6744 40.1368 15.8029C41.7854 16.1924 43.814 14.5863 46.2349 14.5863C48.6559 14.5863 50.4381 15.8896 52.0868 15.5C52.9111 15.3072 53.261 17.9658 54.226 17.9658C54.4838 17.9658 55.1018 17.6011 55.3246 17.3454C55.5474 17.0896 55.7404 16.6882 55.7404 16.2436V12.8981C55.7404 11.7977 56.3429 10.7856 57.3101 10.261L59.513 9.06618C60.2143 8.68781 60.2143 7.68168 59.513 7.30331L46.6805 0.251838ZM44.7884 3.06266C45.689 2.56697 46.7808 2.56697 47.6814 3.06266L55.8087 7.53567C56.3175 7.81571 56.3144 8.54798 55.8031 8.82362C55.505 8.98439 55.1383 8.91282 54.8594 8.72057C54.7596 8.6518 54.6565 8.58932 54.5523 8.53102C53.9953 8.22016 53.3269 7.9998 52.5026 7.80699C50.8577 7.41743 48.667 7.17739 46.2349 7.17739C43.8028 7.17739 41.6121 7.41743 39.9672 7.80699C39.1429 7.9998 38.4745 8.22016 37.9176 8.53102C37.8133 8.58932 37.7102 8.6518 37.6105 8.72057C37.3316 8.91282 36.9649 8.98439 36.6667 8.82362C36.1555 8.54798 36.1523 7.81571 36.6611 7.53567L44.7884 3.06266ZM46.2349 9.1921C48.5556 9.1921 50.6424 9.41639 52.0868 9.75874C52.8071 9.92794 53.3863 10.1247 53.6908 10.2939C53.7987 10.3554 53.8393 10.4914 53.8393 10.6156V12.8612C53.8393 13.5351 53.1588 14.0045 52.5026 13.8511C50.854 13.4615 48.6559 13.2215 46.2349 13.2215C43.814 13.2215 41.6158 13.4615 39.9672 13.8511C39.311 14.0045 38.6305 13.5351 38.6305 12.8612V10.6156C38.6305 10.4914 38.6711 10.3554 38.779 10.2939C39.0835 10.1247 39.6627 9.92794 40.3831 9.75874C41.8275 9.41639 43.9142 9.1921 46.2349 9.1921ZM46.2349 15.2362C48.5407 15.2362 50.6386 15.4605 52.0868 15.8029C52.6137 15.927 52.9903 15.5564 52.7998 15.0496C52.599 14.5154 52.367 14.0187 52.0868 14.0847C50.6386 14.427 48.5407 13.6115 46.2349 13.6115C43.9291 13.6115 41.8312 14.427 40.3831 14.0847C40.1028 14.0187 39.8709 14.5154 39.67 15.0496C39.4795 15.5564 39.8561 15.927 40.3831 15.8029C41.8312 15.4605 43.9291 15.2362 46.2349 15.2362Z" fill="#512E67"/>
<path d="M34.3772 9.1921C33.3759 9.1921 34.6762 10.2899 34.8011 9.43005C34.7112 9.49635 34.5052 9.48393 34.4177 9.19251C34.4046 9.19224 34.391 9.1921 34.3772 9.1921Z" fill="#512E67"/>
<path d="M34.8105 9.28767C34.8105 9.03247 34.6381 8.9335 34.3967 8.91241C34.391 8.91686 34.3848 8.92082 34.3781 8.92423C34.3818 9.03248 34.3962 9.12091 34.4177 9.19251C34.6383 9.19702 34.7578 9.23849 34.8105 9.28767Z" fill="#512E67"/>
<path d="M34.3772 8.86715C34.3772 8.88208 34.3774 8.89667 34.3777 8.91092C34.3841 8.91137 34.3904 8.91186 34.3967 8.91241C34.5537 8.79071 34.3772 8.30619 34.3772 8.86715Z" fill="#512E67"/>
<path d="M34.8105 9.28767C34.8637 9.33731 34.8488 9.3948 34.8011 9.43005C34.8072 9.38751 34.8105 9.34017 34.8105 9.28767Z" fill="#512E67"/>
<path d="M34.2002 8.91017C34.2804 8.94524 34.3379 8.94486 34.3781 8.92423L34.3777 8.91092C34.3216 8.90701 34.2621 8.90707 34.2002 8.91017Z" fill="#512E67"/>
</svg>
